<svg height="472pt" viewBox="0 -89 472.00213 472" width="472pt" xmlns="http://www.w3.org/2000/svg"><path d="m53.609375 235.042969c-16.410156 0-29.714844 13.304687-29.714844 29.714843 0 16.40625 13.304688 29.710938 29.714844 29.710938 16.40625 0 29.710937-13.304688 29.710937-29.710938-.019531-16.402343-13.3125-29.695312-29.710937-29.714843zm0 0"/><path d="m237.160156 235.042969c-16.40625 0-29.710937 13.304687-29.710937 29.714843 0 16.40625 13.304687 29.710938 29.710937 29.710938 16.410156 0 29.714844-13.304688 29.714844-29.710938-.019531-16.402343-13.3125-29.695312-29.714844-29.714843zm0 0"/><path d="m373.449219 153h70.324219l-22.867188-42.859375c-4.277344-8.054687-12.636719-13.105469-21.761719-13.140625h-34.144531v47.25c-.082031 2.292969.773438 4.519531 2.367188 6.171875 1.59375 1.648437 3.789062 2.582031 6.082031 2.578125zm0 0"/><path d="m0 258h10.394531c3.257813-21.347656 21.617188-37.113281 43.214844-37.113281 21.59375 0 39.953125 15.765625 43.210937 37.113281h97.128907c3.257812-21.347656 21.617187-37.113281 43.210937-37.113281 21.597656 0 39.957032 15.765625 43.214844 37.113281h13.625v-69h-294zm0 0"/><path d="m387.871094 235.042969c-16.410156 0-29.714844 13.304687-29.714844 29.714843 0 16.40625 13.304688 29.710938 29.714844 29.710938s29.710937-13.304688 29.710937-29.710938c-.019531-16.402343-13.308593-29.695312-29.710937-29.714843zm0 0"/><path d="m451.824219 167h-78.375c-6.003907 0-11.757813-2.40625-15.976563-6.683594-4.21875-4.273437-6.550781-10.058594-6.472656-16.0625v-58.691406c-.066406-2.328125-1.070312-4.53125-2.78125-6.113281-1.746094-1.628907-4.058594-2.507813-6.445312-2.449219h-33.773438v181h36.65625c3.261719-21.34375 21.621094-37.113281 43.214844-37.113281s39.953125 15.769531 43.214844 37.113281h40.914062v-55.960938c.070312-5.484374-1.683594-10.835937-4.984375-15.214843zm0 0"/><path d="m143.933594 133.8125c11.644531-.058594 22.367187-6.328125 28.132812-16.445312 5.199219-9.082032 5.34375-19.226563.394532-27.882813l-28.535157-39.753906-28.515625 39.621093c-4.964844 8.734376-4.8125 18.9375.421875 28.054688 5.769531 10.089844 16.476563 16.34375 28.101563 16.40625zm-.261719-17.898438c7.632813.019532 13.84375-6.140624 13.882813-13.773437 0-3.867187 3.132812-7 7-7 3.867187 0 7 3.132813 7 7-.046876 15.363281-12.523438 27.785156-27.882813 27.773437-3.867187 0-7-3.136718-7-7 0-3.867187 3.132813-7 7-7zm0 0"/><path d="m63 0h53v8h-53zm0 0"/><path d="m28.847656 158h221.066406c14.949219-.195312 26.992188-12.316406 27.085938-27.265625v-81.507813c-.097656-14.941406-12.148438-27.050781-27.085938-27.226562h-221.066406c-14.804687 0-26.847656 12.421875-26.847656 27.226562v81.507813c0 14.800781 12.042969 27.265625 26.847656 27.265625zm74.625-75.941406c.113282-.195313.238282-.347656.367188-.53125l34.414062-47.75c1.328125-1.792969 3.449219-2.828125 5.679688-2.777344 2.234375-.050781 4.355468.988281 5.683594 2.785156l34.414062 47.816406c.125.175782.246094.355469.355469.542969 7.597656 12.964844 7.535156 28.738281-.171875 42.183594-8.210938 14.503906-23.578125 23.472656-40.242188 23.484375-16.664062.015625-32.046875-8.929688-40.28125-23.414062-7.742187-13.476563-7.824218-29.292969-.21875-42.339844zm0 0"/></svg>